<svg width="26" height="25" viewBox="0 0 26 25" fill="none" xmlns="http://www.w3.org/2000/svg">
<rect x="1.4762" y="0.5" width="24" height="24" rx="2.5" stroke="#F5F5F6"/>
<path fill-rule="evenodd" clip-rule="evenodd" d="M17.5652 3.9261C16.1955 4.17216 14.8463 5.08295 14.2347 6.17445C13.7364 7.06363 13.5719 7.98649 13.5719 9.89307V11.6101H11.8195H10.067V13.4661V15.3222H11.8195H13.5719V20.1612V25.0002H15.6878H17.8034L17.8418 20.1943L17.8801 15.3885L19.9611 15.3517L22.0422 15.3149V13.4661V11.6173L19.9611 11.5805L17.8801 11.5438L17.8836 10.0002C17.8888 7.6125 18.146 7.36763 20.6475 7.36763H22.1882V5.57786V3.78809L20.1802 3.80267C19.0758 3.81062 17.8991 3.86617 17.5652 3.9261Z" fill="#F5F5F6"/>
</svg>
