<svg width="25" height="25" fill="none" xmlns="http://www.w3.org/2000/svg"><path fill-rule="evenodd" clip-rule="evenodd" d="M5.242.217C3.018.784 1.527 2.01.565 4.067L0 5.275v7.045c0 7.695.039 8.02 1.162 9.686.845 1.253 2.002 2.116 3.49 2.603 1.084.355 1.805.391 7.747.391 5.684 0 6.705-.047 7.699-.354 2.109-.652 3.804-2.34 4.51-4.492.355-1.08.392-1.8.392-7.633 0-5.511-.05-6.601-.345-7.552-.461-1.486-1.36-2.797-2.46-3.585C20.387.089 20.23.065 12.902.01 8.03-.026 5.981.029 5.243.217zm14.88 2.612c1.292.634 1.96 1.46 2.384 2.95.38 1.33.375 11.986-.005 13.47a4.627 4.627 0 01-2.91 3.174c-.915.319-1.78.363-7.09.363-6.39 0-7.072-.078-8.383-.96-.915-.616-1.523-1.562-1.784-2.781-.126-.585-.217-3.4-.217-6.699 0-6.34.13-7.22 1.248-8.493 1.37-1.558 2.054-1.675 9.538-1.632l6.049.035 1.17.573zm-1.573 1.577c-.976.57-1.157 1.404-.49 2.25.83 1.054 2.606.47 2.606-.856 0-1.105-1.228-1.913-2.116-1.394zM10.686 6.25c-1.894.626-3.382 1.93-4.171 3.655-.635 1.389-.648 3.82-.028 5.168.648 1.409 1.899 2.646 3.319 3.282 1.113.499 1.41.546 2.987.47 1.456-.07 1.912-.177 2.7-.638 2.139-1.252 3.2-2.943 3.324-5.298.095-1.802-.315-3.127-1.386-4.48-1.475-1.863-4.61-2.866-6.745-2.16zm3.885 2.68c3.437 1.974 2.258 7.351-1.683 7.677-1.438.12-2.667-.348-3.587-1.366-1.52-1.679-1.474-3.836.117-5.56 1.404-1.521 3.326-1.801 5.153-.752z" fill="#F5F5F6"/></svg>