<svg width="139" height="52" fill="none" xmlns="http://www.w3.org/2000/svg"><path d="M16.756 30.9h5.57c1.446 0 2.723.293 3.83.879 1.108.573 1.968 1.38 2.58 2.423.612 1.03.918 2.209.918 3.538 0 1.328-.306 2.514-.918 3.556-.612 1.03-1.472 1.838-2.58 2.424-1.107.573-2.384.86-3.83.86h-5.57V30.9zm5.492 12.429c1.198 0 2.247-.235 3.146-.704.9-.482 1.596-1.14 2.091-1.974.495-.846.743-1.817.743-2.911 0-1.095-.248-2.059-.743-2.893a5.097 5.097 0 00-2.09-1.974c-.9-.482-1.949-.723-3.147-.723h-4.046v11.18h4.046zm16.634 1.368c-1.355 0-2.586-.3-3.693-.899a6.798 6.798 0 01-2.58-2.502c-.612-1.055-.919-2.24-.919-3.556 0-1.316.307-2.502.919-3.557a6.656 6.656 0 012.58-2.482c1.107-.613 2.338-.919 3.693-.919s2.574.3 3.655.9a6.613 6.613 0 012.58 2.5c.625 1.056.938 2.242.938 3.558 0 1.316-.313 2.508-.938 3.576a6.655 6.655 0 01-2.58 2.482c-1.081.6-2.3.899-3.655.899zm0-1.29c1.082 0 2.059-.24 2.932-.723a5.395 5.395 0 002.052-2.032c.495-.873.743-1.844.743-2.912 0-1.069-.248-2.033-.743-2.893a5.218 5.218 0 00-2.052-2.032c-.873-.495-1.85-.743-2.932-.743-1.081 0-2.065.247-2.95.743a5.354 5.354 0 00-2.072 2.032c-.495.86-.743 1.824-.743 2.893 0 1.068.248 2.039.743 2.911a5.54 5.54 0 002.071 2.033c.886.482 1.87.723 2.951.723zM63.505 30.9v13.68h-1.388V33.635l-5.374 9.205h-.684l-5.375-9.146V44.58h-1.388V30.9h1.193l5.94 10.142L62.313 30.9h1.193zm10.437 13.797c-1.355 0-2.586-.3-3.693-.899a6.799 6.799 0 01-2.58-2.502c-.613-1.055-.919-2.24-.919-3.556 0-1.316.306-2.502.919-3.557a6.657 6.657 0 012.58-2.482c1.107-.613 2.338-.919 3.693-.919s2.574.3 3.655.9a6.614 6.614 0 012.58 2.5c.625 1.056.938 2.242.938 3.558 0 1.316-.313 2.508-.938 3.576a6.656 6.656 0 01-2.58 2.482c-1.081.6-2.3.899-3.655.899zm0-1.29c1.082 0 2.059-.24 2.932-.723a5.395 5.395 0 002.052-2.032c.495-.873.742-1.844.742-2.912 0-1.069-.247-2.033-.742-2.893a5.218 5.218 0 00-2.052-2.032c-.873-.495-1.85-.743-2.932-.743-1.081 0-2.065.247-2.95.743a5.353 5.353 0 00-2.072 2.032c-.496.86-.743 1.824-.743 2.893 0 1.068.247 2.039.743 2.911a5.538 5.538 0 002.071 2.033c.886.482 1.87.723 2.951.723zm14.186 1.29a8.871 8.871 0 01-2.931-.489c-.925-.325-1.642-.755-2.15-1.29l.567-1.113c.495.495 1.153.899 1.974 1.211.82.3 1.667.45 2.54.45 1.225 0 2.143-.222 2.756-.665.612-.456.918-1.042.918-1.759 0-.547-.169-.983-.508-1.309a3.17 3.17 0 00-1.212-.743c-.481-.182-1.152-.378-2.012-.586-1.03-.26-1.85-.508-2.463-.743a4.22 4.22 0 01-1.583-1.114c-.43-.495-.645-1.166-.645-2.013 0-.69.182-1.316.547-1.876.365-.573.925-1.029 1.681-1.368.756-.338 1.694-.508 2.814-.508.782 0 1.544.11 2.287.332.756.209 1.407.502 1.954.88l-.488 1.153a6.51 6.51 0 00-1.837-.84 6.646 6.646 0 00-1.916-.294c-1.198 0-2.104.235-2.716.704-.6.456-.9 1.049-.9 1.778 0 .548.164.99.49 1.33.338.325.755.58 1.25.761.508.17 1.186.359 2.033.567 1.003.248 1.81.495 2.423.743.625.234 1.153.6 1.583 1.094.43.482.645 1.14.645 1.974 0 .69-.189 1.323-.567 1.896-.365.56-.931 1.01-1.7 1.348-.769.326-1.713.489-2.834.489zm16.871-7.172c.899.195 1.589.586 2.071 1.172.495.573.743 1.316.743 2.228 0 1.173-.436 2.078-1.309 2.717-.86.625-2.137.938-3.831.938H96.38V30.9h5.902c1.525 0 2.704.306 3.538.918.846.612 1.27 1.479 1.27 2.6 0 .755-.189 1.4-.567 1.934-.365.521-.873.912-1.524 1.173zm-7.173-5.433v4.964h4.359c1.107 0 1.96-.209 2.56-.626.599-.43.899-1.049.899-1.856 0-.808-.3-1.42-.899-1.838-.6-.43-1.453-.644-2.56-.644h-4.359zm4.828 11.296c1.224 0 2.149-.209 2.775-.626.625-.417.938-1.068.938-1.954 0-1.707-1.238-2.56-3.713-2.56h-4.828v5.14h4.828zm14.44 1.309c-1.355 0-2.586-.3-3.693-.899a6.792 6.792 0 01-2.58-2.502c-.612-1.055-.919-2.24-.919-3.556 0-1.316.307-2.502.919-3.557a6.65 6.65 0 012.58-2.482c1.107-.613 2.338-.919 3.693-.919s2.574.3 3.655.9a6.621 6.621 0 012.58 2.5c.625 1.056.938 2.242.938 3.558 0 1.316-.313 2.508-.938 3.576a6.663 6.663 0 01-2.58 2.482c-1.081.6-2.3.899-3.655.899zm0-1.29c1.082 0 2.059-.24 2.932-.723a5.393 5.393 0 002.052-2.032c.495-.873.743-1.844.743-2.912 0-1.069-.248-2.033-.743-2.893a5.216 5.216 0 00-2.052-2.032c-.873-.495-1.85-.743-2.932-.743-1.081 0-2.065.247-2.951.743a5.35 5.35 0 00-2.071 2.032c-.495.86-.743 1.824-.743 2.893 0 1.068.248 2.039.743 2.911a5.536 5.536 0 002.071 2.033c.886.482 1.87.723 2.951.723zm19.756 1.173l-3.127-4.398a9.9 9.9 0 01-1.094.06h-3.674v4.338h-1.447V30.9h5.121c1.746 0 3.114.416 4.104 1.25.99.834 1.485 1.98 1.485 3.44 0 1.068-.273 1.974-.821 2.716-.534.73-1.303 1.258-2.306 1.583l3.342 4.69h-1.583zm-4.26-5.57c1.355 0 2.39-.3 3.107-.9.717-.598 1.075-1.439 1.075-2.52 0-1.108-.358-1.955-1.075-2.54-.717-.6-1.752-.9-3.107-.9h-3.635v6.86h3.635z" fill="#49423D"/><path d="M12.177 51H1V20.412L41.588 1l41.177 19.412v5.294" stroke="#8DB338" stroke-width="1.531"/></svg>