<svg width="131" height="46" fill="none" xmlns="http://www.w3.org/2000/svg"><path d="M15.71 27.392h5.27c1.369 0 2.577.26 3.625.781 1.048.51 1.861 1.227 2.44 2.153.58.914.87 1.961.87 3.142 0 1.18-.29 2.233-.87 3.159-.579.914-1.392 1.632-2.44 2.152-1.048.51-2.256.764-3.624.764h-5.27v-12.15zm5.197 11.04c1.134 0 2.126-.208 2.977-.625.85-.428 1.51-1.012 1.978-1.753.469-.752.703-1.614.703-2.586 0-.972-.234-1.829-.703-2.57-.468-.752-1.128-1.336-1.978-1.753-.85-.428-1.843-.642-2.977-.642h-3.828v9.93h3.828zm15.738 1.215c-1.282 0-2.447-.266-3.494-.798-1.036-.544-1.85-1.285-2.441-2.222-.58-.937-.87-1.99-.87-3.16 0-1.168.29-2.221.87-3.159.592-.937 1.405-1.672 2.44-2.204 1.048-.544 2.213-.816 3.495-.816s2.435.266 3.458.799c1.035.532 1.85 1.273 2.44 2.221.593.938.888 1.99.888 3.16 0 1.168-.295 2.227-.887 3.176-.592.938-1.405 1.672-2.44 2.205-1.024.532-2.177.798-3.459.798zm0-1.145c1.023 0 1.948-.215 2.774-.643a4.963 4.963 0 001.941-1.805 4.905 4.905 0 00.703-2.586c0-.95-.234-1.806-.703-2.57a4.8 4.8 0 00-1.941-1.805c-.826-.44-1.75-.66-2.774-.66-1.023 0-1.954.22-2.792.66a4.93 4.93 0 00-1.96 1.806c-.468.763-.702 1.62-.702 2.569 0 .949.234 1.81.702 2.586a5.1 5.1 0 001.96 1.805c.838.428 1.77.643 2.792.643zm23.295-11.11v12.151h-1.312v-9.72l-5.085 8.175h-.647l-5.085-8.123v9.668h-1.313v-12.15h1.128l5.621 9.008 5.566-9.009h1.128zm9.876 12.255c-1.282 0-2.447-.266-3.495-.798-1.035-.544-1.849-1.285-2.44-2.222-.58-.937-.87-1.99-.87-3.16 0-1.168.29-2.221.87-3.159.591-.937 1.405-1.672 2.44-2.204 1.048-.544 2.213-.816 3.495-.816s2.435.266 3.458.799c1.035.532 1.849 1.273 2.44 2.221.592.938.888 1.99.888 3.16 0 1.168-.296 2.227-.887 3.176-.592.938-1.406 1.672-2.441 2.205-1.023.532-2.176.798-3.458.798zm0-1.145c1.023 0 1.948-.215 2.774-.643a4.963 4.963 0 001.941-1.805 4.905 4.905 0 00.703-2.586c0-.95-.234-1.806-.703-2.57a4.8 4.8 0 00-1.941-1.805c-.826-.44-1.75-.66-2.774-.66-1.023 0-1.954.22-2.792.66a4.93 4.93 0 00-1.96 1.806c-.468.763-.702 1.62-.702 2.569 0 .949.234 1.81.702 2.586a5.101 5.101 0 001.96 1.805c.838.428 1.77.643 2.792.643zm13.422 1.145a8.893 8.893 0 01-2.774-.434c-.875-.289-1.553-.67-2.034-1.145l.537-.99c.468.44 1.09.799 1.867 1.076.777.267 1.578.4 2.404.4 1.159 0 2.028-.197 2.607-.59.58-.405.87-.926.87-1.563 0-.486-.161-.873-.482-1.163a3.033 3.033 0 00-1.146-.66c-.456-.161-1.091-.335-1.905-.52-.973-.232-1.75-.452-2.33-.66a4 4 0 01-1.497-.99c-.407-.439-.61-1.035-.61-1.787 0-.613.172-1.169.517-1.666.346-.51.876-.915 1.59-1.216.716-.3 1.603-.45 2.663-.45.74 0 1.461.098 2.164.294.715.185 1.33.446 1.849.781l-.463 1.024a6.36 6.36 0 00-1.738-.746 6.67 6.67 0 00-1.812-.26c-1.134 0-1.99.208-2.57.625-.567.405-.85.931-.85 1.58 0 .485.154.879.462 1.18a3.4 3.4 0 001.183.677c.48.15 1.122.318 1.923.503.95.22 1.714.44 2.293.66a3.66 3.66 0 011.498.972c.407.428.61 1.012.61 1.753 0 .613-.179 1.174-.536 1.684-.346.497-.882.896-1.609 1.197-.727.29-1.621.434-2.681.434zm15.962-6.37c.85.173 1.503.52 1.959 1.041.469.51.703 1.169.703 1.98 0 1.04-.413 1.845-1.239 2.412-.813.555-2.021.833-3.624.833h-5.954v-12.15h5.584c1.443 0 2.558.271 3.347.815.801.544 1.202 1.314 1.202 2.309 0 .67-.179 1.244-.536 1.718-.345.463-.826.81-1.442 1.042zm-6.787-4.826v4.41h4.124c1.048 0 1.855-.186 2.422-.556.567-.382.85-.932.85-1.65 0-.717-.283-1.26-.85-1.631-.567-.382-1.374-.573-2.422-.573h-4.124zm4.568 10.033c1.158 0 2.034-.185 2.625-.555.592-.37.888-.95.888-1.736 0-1.516-1.171-2.274-3.513-2.274h-4.567v4.565h4.567zm13.662 1.163c-1.282 0-2.447-.266-3.494-.798-1.036-.544-1.849-1.285-2.441-2.222-.579-.937-.869-1.99-.869-3.16 0-1.168.29-2.221.869-3.159.592-.937 1.405-1.672 2.441-2.204 1.047-.544 2.212-.816 3.494-.816s2.435.266 3.458.799c1.036.532 1.849 1.273 2.441 2.221.592.938.887 1.99.887 3.16 0 1.168-.295 2.227-.887 3.176-.592.938-1.405 1.672-2.441 2.205-1.023.532-2.176.798-3.458.798zm0-1.145c1.024 0 1.948-.215 2.774-.643a4.958 4.958 0 001.941-1.805 4.9 4.9 0 00.703-2.586c0-.95-.234-1.806-.703-2.57a4.796 4.796 0 00-1.941-1.805c-.826-.44-1.75-.66-2.774-.66-1.023 0-1.953.22-2.792.66a4.93 4.93 0 00-1.96 1.806c-.468.763-.702 1.62-.702 2.569 0 .949.234 1.81.702 2.586a5.102 5.102 0 001.96 1.805c.839.428 1.769.643 2.792.643zm18.692 1.041l-2.959-3.905a9.986 9.986 0 01-1.035.052h-3.476v3.853h-1.369v-12.15h4.845c1.652 0 2.946.37 3.883 1.11.937.74 1.405 1.76 1.405 3.055 0 .95-.259 1.754-.776 2.413-.506.648-1.233 1.117-2.182 1.406l3.162 4.166h-1.498zm-4.031-4.947c1.282 0 2.262-.266 2.94-.798.678-.533 1.017-1.28 1.017-2.24 0-.983-.339-1.736-1.017-2.256-.678-.533-1.658-.799-2.94-.799h-3.439v6.093h3.439z" fill="#F5F5F6"/><path fill-rule="evenodd" clip-rule="evenodd" d="M39.203 0l39.764 17.598v5.181H77.36v-4.224L39.208 1.671l-37.6 16.882V44.49h9.77V46H0V17.601L39.203 0z" fill="#8DB338"/></svg>