<svg width="25" height="21" fill="none" xmlns="http://www.w3.org/2000/svg"><path fill-rule="evenodd" clip-rule="evenodd" d="M23.316.684C21.652 1.268 1.143 8.778.841 8.914-.163 9.368-.28 9.967.555 10.372c.081.04 1.47.462 3.085.94l2.938.87 6.672-3.979c3.67-2.188 6.746-4.002 6.836-4.032.227-.076.422-.069.513.018.064.06.066.091.015.18-.033.06-2.47 2.169-5.415 4.688-2.944 2.519-5.361 4.6-5.371 4.624-.01.024-.11 1.282-.222 2.795l-.203 2.75.221-.028c.122-.016.315-.076.428-.133.114-.058.881-.72 1.704-1.471.823-.752 1.525-1.377 1.56-1.39.035-.012 1.346.873 2.913 1.967 1.567 1.095 2.973 2.044 3.123 2.11.393.174.837.191 1.125.044.257-.131.509-.457.614-.797.041-.131.937-4.077 1.992-8.769C24.838 2.947 24.999 2.191 25 1.786c0-.383-.016-.475-.124-.676a1.106 1.106 0 00-.332-.372c-.29-.194-.768-.215-1.228-.054z" fill="#F5F5F6"/></svg>