<svg width="23" height="25" fill="none" xmlns="http://www.w3.org/2000/svg"><path fill-rule="evenodd" clip-rule="evenodd" d="M12.076 8.86c-.026 9.979.008 9.186-.426 10.031a3.621 3.621 0 01-1.735 1.665c-.65.307-1.001.384-1.737.383-.718 0-1.08-.079-1.687-.364a3.747 3.747 0 01-1.763-1.684c-.3-.59-.38-.93-.38-1.613-.002-.707.079-1.034.413-1.686.202-.393.31-.533.703-.906.507-.482.968-.75 1.64-.95.493-.148 1.304-.184 1.815-.08.21.043.412.079.447.079.05 0 .064-.443.064-2.05v-2.05l-.243-.04c-.133-.02-.61-.037-1.06-.035-1.315.006-2.35.23-3.489.753C.15 12.376-1.372 17.6 1.366 21.546c.473.681 1.495 1.665 2.186 2.104 2.134 1.357 4.71 1.708 7.156.976 2.192-.656 4.152-2.372 5.032-4.406a8.054 8.054 0 00.517-1.72c.084-.45.09-.87.077-5.389-.007-2.695.003-4.9.023-4.9s.119.064.221.14c.578.436 1.739 1.03 2.627 1.346.993.354 2.406.616 3.312.616h.46l-.014-2.016-.014-2.016-.494-.031c-1.567-.098-2.99-.722-4.163-1.827a6.109 6.109 0 01-1.94-3.995L16.316 0H12.1l-.023 8.86z" fill="#F5F5F6"/></svg>