<svg width="26" height="21" fill="none" xmlns="http://www.w3.org/2000/svg"><path fill-rule="evenodd" clip-rule="evenodd" d="M17.172.656a4.691 4.691 0 00-1.198.408 5.104 5.104 0 00-2.739 3.294c-.139.517-.187 1.505-.098 2.022l.05.293-.573-.038c-2.045-.132-4.29-.842-6.197-1.96-1.053-.617-1.817-1.21-2.85-2.21-1.102-1.068-1.005-1.043-1.29-.333-.485 1.21-.524 2.312-.12 3.413.313.857.978 1.795 1.648 2.324l.35.276h-.193c-.358 0-1.137-.186-1.617-.385l-.476-.198v.294c0 1.05.572 2.324 1.435 3.2.64.648 1.272 1.036 2.16 1.325l.492.16-.53.077a7.034 7.034 0 01-1.153.047c-.733-.034-.713-.087-.272.732.48.893 1.27 1.66 2.17 2.107.657.327 1.002.435 1.687.531l.545.077-.24.183a8.381 8.381 0 01-.655.43 10.63 10.63 0 01-5.846 1.486c-.913-.032-.913-.03-.009.44 3.093 1.612 6.432 2.13 9.896 1.534 5.242-.902 9.412-4.524 11.123-9.662.461-1.383.707-2.844.707-4.195v-.793l.354-.257c.663-.483 1.686-1.547 2.133-2.218l.11-.165-.288.12c-.623.259-2.444.725-2.525.646-.014-.013.173-.17.414-.348.681-.504 1.334-1.373 1.617-2.152l.081-.221-.748.348c-.702.326-1.539.621-2.206.779l-.291.068-.324-.284A5.238 5.238 0 0019.429.689c-.584-.136-1.705-.152-2.257-.033z" fill="#F5F5F6"/></svg>