<svg width="26" height="15" fill="none" xmlns="http://www.w3.org/2000/svg"><path fill-rule="evenodd" clip-rule="evenodd" d="M10.123.496c-.334.13-.816.562-.816.73 0 .076.106.138.235.138.13 0 .428.166.662.367.567.489.816 2.158.592 3.962-.185 1.493-.412 1.817-1.065 1.52-.575-.262-2.013-2.42-2.962-4.448-.552-1.18-.841-1.614-1.152-1.732-.54-.206-3.68-.204-4.222.001-.242.092-.419.287-.419.462 0 .167.607 1.511 1.348 2.987 3.087 6.151 5.777 9.053 9.121 9.84 1.38.324 3.632.334 3.896.017.107-.129.258-.685.336-1.236.078-.55.259-1.18.401-1.397.446-.68.882-.503 2.255.914 1.906 1.965 1.873 1.951 4.784 1.952 2.643 0 2.85-.06 2.85-.825 0-.622-.627-1.475-2.467-3.35-.889-.906-1.616-1.736-1.616-1.843 0-.344.437-1.035 1.869-2.95 2.197-2.94 2.702-4.227 1.795-4.57-.534-.204-4.573-.21-4.95-.008-.157.084-.774 1.13-1.371 2.324-1.203 2.403-2.377 3.935-2.954 3.852-.624-.09-.755-.691-.757-3.484-.002-1.999-.057-2.693-.234-2.935-.208-.285-.466-.32-2.573-.35-1.287-.02-2.451.009-2.586.062z" fill="#F5F5F6"/></svg>