<svg width="25" height="19" fill="none" xmlns="http://www.w3.org/2000/svg"><path fill-rule="evenodd" clip-rule="evenodd" d="M7.74.914c-1.822.067-3.696.18-4.163.252C1.905 1.42.837 2.285.452 3.696c-.38 1.386-.57 5.693-.373 8.396.21 2.864.35 3.53.914 4.364.984 1.45 2.67 1.697 11.59 1.697 6.179 0 9.276-.196 10.179-.648 1.542-.772 1.883-1.634 2.157-5.455.198-2.746.016-6.973-.356-8.288-.507-1.795-1.528-2.434-4.257-2.664C17.473.86 11.55.773 7.74.914zm6.243 7.139c1.33.76 2.42 1.419 2.42 1.465.002.073-3.192 1.937-5.646 3.294l-.808.447V5.778l.808.446c.444.246 1.896 1.069 3.226 1.829z" fill="#F5F5F6"/></svg>